<svg width="64" height="64" viewBox="0 0 64 64" fill="none" xmlns="http://www.w3.org/2000/svg">
<path d="M33.5138 47.9239V42.2057L45.6218 30.9083C46.4845 30.1096 47.116 29.4024 47.5166 28.7877C47.9479 28.1729 48.2252 27.6193 48.3484 27.1275C48.5024 26.6052 48.5794 26.1287 48.5794 25.6979C48.5794 24.6525 48.2252 23.8385 47.5166 23.2543C46.8387 22.6701 45.8066 22.3776 44.4202 22.3776C43.2495 22.3776 42.1557 22.6396 41.139 23.1619C40.1223 23.6842 39.2905 24.4685 38.6435 25.5131L31.8501 21.7323C33.0517 19.7033 34.7924 18.0745 37.0723 16.8442C39.3522 15.6147 42.0787 15 45.2521 15C47.7476 15 49.935 15.3994 51.8144 16.1989C53.6937 16.9985 55.1572 18.1355 56.2047 19.6109C57.283 21.0871 57.8222 22.8236 57.8222 24.8221C57.8222 25.8667 57.6835 26.9121 57.4063 27.9576C57.129 28.9717 56.5898 30.0629 55.7888 31.2313C55.0185 32.3692 53.8632 33.6445 52.3228 35.0588L46.2149 40.6846H58.7002V47.9239H33.5138Z" fill="#FC016A"/>
<path d="M17.2794 48.7371C15.0824 48.7371 12.8853 48.4607 10.6883 47.9071C8.52129 47.3534 6.62519 46.5699 5 45.5558L8.25044 38.6845C9.5145 39.5451 10.914 40.2064 12.4489 40.6677C14.014 41.1289 15.5338 41.3596 17.0085 41.3596C18.5435 41.3596 19.7624 41.0671 20.6653 40.4829C21.5682 39.8987 22.0196 39.0694 22.0196 37.9934C22.0196 37.0404 21.6434 36.2866 20.891 35.7337C20.1386 35.1496 18.9046 34.8571 17.1892 34.8571H13.4421V29.093L19.0862 22.8686H6.62519V15.8132H29.4685V21.5314L22.9553 28.7146C25.0203 29.134 26.6948 29.9215 27.9788 31.0763C30.0253 32.8594 31.0486 35.1648 31.0486 37.9934C31.0486 39.8376 30.552 41.5741 29.5588 43.2037C28.5958 44.8326 27.106 46.1705 25.0895 47.2152C23.073 48.2301 20.4697 48.7371 17.2794 48.7371Z" fill="#1977F3"/>
</svg>
