<svg width="130" height="48" viewBox="0 0 130 48" fill="none" xmlns="http://www.w3.org/2000/svg">
<path d="M87.3698 27.9648H0V30.069H87.3698V27.9648Z" fill="white"/>
<path fill-rule="evenodd" clip-rule="evenodd" d="M128.6 37.662L124.178 40.2236L114.816 45.6213L105.454 40.2236L96.1222 34.7954V24V13.1436L105.454 7.74587L114.816 2.31766L124.178 7.74587L128.63 10.3075L129.637 8.56925L125.184 5.97713L114.816 0L104.417 5.97713L95.0854 11.3748L85.7232 5.97713L75.3548 0L64.9863 5.97713L60.5034 8.56925L61.5403 10.3075L65.9926 7.74587L75.3548 2.31766L84.7169 7.74587L94.079 13.1436V24V34.7954L84.7169 40.2236L75.3548 45.6213L65.9926 40.2236L61.5708 37.662L60.5034 39.4003L64.9863 41.9924L75.3548 48L85.7232 41.9924L95.0854 36.5642L104.417 41.9924L114.816 48L125.184 41.9924L129.667 39.4003L128.6 37.662Z" fill="white"/>
<path fill-rule="evenodd" clip-rule="evenodd" d="M26.9579 21.7742H36.3506L38.2108 25.4032H41.8398L33.545 9.33203H33.423H29.916H29.794L21.4688 25.4032H25.0977L26.9579 21.7742ZM31.6543 12.6865L34.8258 18.8161H28.4827L31.6543 12.6865Z" fill="#EFD900"/>
<path fill-rule="evenodd" clip-rule="evenodd" d="M46.0176 25.4032H48.7012V15.8276H54.0379V13.7539H40.6504V15.8276H46.0176V25.4032Z" fill="#EFD900"/>
<path fill-rule="evenodd" clip-rule="evenodd" d="M57.4537 25.4032H67.3037C68.5541 25.4032 69.5909 24.3969 69.5909 23.116V16.0411C69.5909 14.7908 68.5845 13.7539 67.3037 13.7539H57.4537C56.2034 13.7539 55.1665 14.7603 55.1665 16.0411V23.1465C55.1665 24.3969 56.1729 25.4032 57.4537 25.4032ZM57.8501 15.8276H66.9073V23.3295H57.8501V15.8276Z" fill="#EFD900"/>
<path fill-rule="evenodd" clip-rule="evenodd" d="M86.821 25.4032V13.7539H84.3509L79.1971 20.4629L74.0434 13.7539H71.5732V25.4032H74.0434V17.8403L78.6787 23.8479H79.1971H79.7156L84.3509 17.8403V25.4032H86.821Z" fill="#EFD900"/>
<path fill-rule="evenodd" clip-rule="evenodd" d="M14.1804 31.8066C13.0215 31.8066 12.0762 32.7825 12.0762 34.0023C12.0762 35.2221 13.0215 36.198 14.1804 36.198C15.3392 36.198 16.2846 35.2221 16.2846 34.0023C16.2846 32.7825 15.3392 31.8066 14.1804 31.8066ZM14.1804 35.1916C13.601 35.1916 13.1435 34.6427 13.1435 34.0023C13.1435 33.3314 13.601 32.813 14.1804 32.813C14.7598 32.813 15.2172 33.3619 15.2172 34.0023C15.2172 34.6732 14.7598 35.1916 14.1804 35.1916Z" fill="#EFD900"/>
<path fill-rule="evenodd" clip-rule="evenodd" d="M43.1818 31.8066C42.023 31.8066 41.0776 32.7825 41.0776 34.0023C41.0776 35.2221 42.023 36.198 43.1818 36.198C44.3407 36.198 45.286 35.2221 45.286 34.0023C45.286 32.7825 44.3407 31.8066 43.1818 31.8066ZM43.1818 35.1916C42.6024 35.1916 42.145 34.6427 42.145 34.0023C42.145 33.3314 42.6024 32.813 43.1818 32.813C43.7612 32.813 44.2187 33.3619 44.2187 34.0023C44.2187 34.6732 43.7612 35.1916 43.1818 35.1916Z" fill="#EFD900"/>
<path fill-rule="evenodd" clip-rule="evenodd" d="M3.81198 32.7825C4.23892 32.7825 4.60486 33.057 4.78784 33.4839H5.88568C5.67221 32.508 4.81833 31.8066 3.84247 31.8066C2.68364 31.8066 1.73828 32.7825 1.73828 34.0023C1.73828 35.2221 2.68364 36.198 3.84247 36.198C4.81833 36.198 5.67221 35.4966 5.88568 34.5207H4.78784C4.60486 34.9477 4.23892 35.2221 3.81198 35.2221C3.23256 35.2221 2.74463 34.6732 2.74463 34.0328C2.74463 33.3314 3.23256 32.7825 3.81198 32.7825Z" fill="#EFD900"/>
<path fill-rule="evenodd" clip-rule="evenodd" d="M7.22754 35.9543H8.32538V32.7523H9.63669V35.9543H10.7345V31.8984H7.22754V35.9543Z" fill="#EFD900"/>
<path fill-rule="evenodd" clip-rule="evenodd" d="M53.0625 35.9543H54.1603V32.7523H55.4716V35.9543H56.5695V31.8984H53.0625V35.9543Z" fill="#EFD900"/>
<path fill-rule="evenodd" clip-rule="evenodd" d="M38.5767 33.3317H37.3264V31.8984H36.2285V35.9543H37.3264V34.1856H38.5767V35.9543H39.6745V31.8984H38.5767V33.3317Z" fill="#EFD900"/>
<path fill-rule="evenodd" clip-rule="evenodd" d="M21.957 32.7523H22.9634V35.9543H24.0612V32.7523H25.0676V31.8984H21.957V32.7523Z" fill="#EFD900"/>
<path fill-rule="evenodd" clip-rule="evenodd" d="M65.0776 35.9543V32.7523H66.084V31.8984H63.0039V32.7523H64.0103V35.9543H65.0776Z" fill="#EFD900"/>
<path fill-rule="evenodd" clip-rule="evenodd" d="M75.2632 35.9543V31.8984H74.1958V33.3317H72.9455V31.8984H71.8477V35.9543H72.9455V34.1856H74.1958V35.9543H75.2632Z" fill="#EFD900"/>
<path fill-rule="evenodd" clip-rule="evenodd" d="M46.7495 35.9543H49.2806V35.1005H47.7254V34.3076H49.2196V33.4537H47.7254V32.7523H49.2806V31.8984H46.7495V35.9543Z" fill="#EFD900"/>
<path fill-rule="evenodd" clip-rule="evenodd" d="M84.7469 32.7523V31.8984H82.2158V35.9543H84.7469V35.1005H83.1612V34.3076H84.6555V33.4537H83.1612V32.7523H84.7469Z" fill="#EFD900"/>
<path fill-rule="evenodd" clip-rule="evenodd" d="M19.6695 31.8984H17.7178V35.9543H18.8156V34.826H19.6695C20.4624 34.826 21.1333 34.1551 21.1333 33.3622C21.1333 32.5693 20.4624 31.8984 19.6695 31.8984ZM19.4255 33.9721H18.8156V32.7523H19.4255C19.761 32.7523 20.0354 33.0268 20.0354 33.3622C20.0354 33.6977 19.761 33.9721 19.4255 33.9721Z" fill="#EFD900"/>
<path fill-rule="evenodd" clip-rule="evenodd" d="M27.5373 33.8806V31.8984H26.4395V35.9543H26.8054L28.7876 34.0026V35.9543H29.855V31.8984H29.5195L27.5373 33.8806Z" fill="#EFD900"/>
<path fill-rule="evenodd" clip-rule="evenodd" d="M61.5705 35.9543V31.8984H61.2046L59.2223 33.8806V31.8984H58.1245V35.9543H58.4905L60.4727 34.0026V35.9543H61.5705Z" fill="#EFD900"/>
<path fill-rule="evenodd" clip-rule="evenodd" d="M80.4777 35.9543V31.8984H80.1118L78.1296 33.8806V31.8984H77.0317V35.9543H77.3977L79.3799 34.0026V35.9543H80.4777Z" fill="#EFD900"/>
<path fill-rule="evenodd" clip-rule="evenodd" d="M34.2161 33.8499C34.3991 33.606 34.4906 33.362 34.4906 33.118C34.4906 32.4471 33.9416 31.9287 33.3012 31.9287H31.563V35.9846H33.4842C34.1551 35.9846 34.6735 35.4357 34.6735 34.7953C34.6735 34.4293 34.5211 34.0939 34.2161 33.8499ZM32.4169 32.6301H33.1793C33.4537 32.6301 33.6672 32.8436 33.6672 33.118C33.6672 33.3925 33.4537 33.606 33.1793 33.606H32.4169V32.6301ZM33.3622 35.2527H32.4169V34.3074H33.3622C33.6367 34.3074 33.8502 34.5208 33.8502 34.7953C33.8197 35.0393 33.6062 35.2527 33.3622 35.2527Z" fill="#EFD900"/>
<path fill-rule="evenodd" clip-rule="evenodd" d="M68.7981 31.8984H68.3102L66.4805 35.9543H67.4868L67.7308 35.4054H69.4385L69.6825 35.9543H70.6889L68.7981 31.8984ZM68.5542 33.3927L69.0726 34.6735H68.0357L68.5542 33.3927Z" fill="#EFD900"/>
</svg>
