<svg width="48" height="45" viewBox="0 0 48 45" fill="none" xmlns="http://www.w3.org/2000/svg">
<path d="M47.9998 20.2142C47.9998 33.929 37.2144 45 23.973 45C22.1043 45 20.3423 44.7797 18.5803 44.3941C17.5125 44.1187 16.4446 43.7882 15.4302 43.4027C18.7405 43.4027 21.9441 42.7968 24.9341 41.6952C36.2534 37.6193 44.4225 26.4382 44.4225 13.3843C44.4225 10.6854 44.1021 8.09666 43.4614 5.67316C46.2912 9.74905 47.9998 14.7613 47.9998 20.2142Z" fill="#B19B69"/>
<path d="M30.3807 36.5178C26.0558 39.4921 20.8767 41.2546 15.3239 41.2546C13.9357 41.2546 12.6009 41.1445 11.2661 40.9241C13.5085 39.7124 15.4841 38.1151 17.1393 36.1322C17.1393 36.1322 17.1393 36.0771 17.1926 36.0771C17.513 35.7467 17.78 35.3611 18.0469 35.0306C18.1003 34.9205 18.1537 34.8654 18.2071 34.7552C20.6098 31.3403 21.998 27.1542 21.998 22.6928C21.998 14.4859 17.2994 7.38066 10.5186 4.07589C11.7466 3.80049 13.028 3.69033 14.3094 3.69033C17.6732 3.69033 20.8234 4.51653 23.5998 6.05875C23.6532 2.6989 26.2694 0 29.5264 0C30.701 0 31.7689 0.330478 32.6765 0.936353C34.3317 2.03794 35.3996 3.91065 35.3996 6.11383C35.3996 8.42718 34.1715 10.41 32.3562 11.4566C33.2639 12.0624 34.3851 12.3929 35.5064 12.3929C38.7099 12.3929 41.2728 9.80417 41.433 6.55447C41.9669 8.75765 42.2338 11.0159 42.2338 13.3843C42.3406 23.0233 37.5887 31.5055 30.3807 36.5178Z" fill="#F64D40"/>
<path d="M9.02338 39.6574C8.8632 39.4921 8.70302 39.382 8.54284 39.2167C4.05785 35.3612 1.01446 29.8532 0.160178 23.6292C0.0533928 23.0233 0 22.4175 0 21.7565C0.694106 22.8581 1.86875 23.6292 3.20357 23.7944C3.36374 23.7944 3.57731 23.8495 3.79089 23.8495C4.69856 23.8495 5.55285 23.5741 6.30034 23.0784C6.56731 22.9132 6.78088 22.6929 6.99445 22.4725C5.1257 21.8667 3.79089 20.1041 3.79089 18.0111C3.79089 16.7443 4.27142 15.5876 5.1257 14.7063C5.9266 13.8801 7.04784 13.3293 8.32927 13.3293C10.198 13.3293 11.7998 14.486 12.4939 16.1384C12.8143 15.0919 12.9744 14.0454 12.9744 12.8887C12.9744 12.8336 12.9744 12.7785 12.9744 12.7785C12.9744 11.8422 12.8143 10.9058 12.6007 10.0246C12.2803 8.8128 11.7464 7.65613 11.0523 6.60962C14.5762 8.70264 17.406 12.0625 18.8476 16.0282C19.5951 18.0662 20.0223 20.2694 20.0223 22.6378C20.0223 26.8238 18.6875 30.6794 16.3916 33.7638C16.2314 33.9291 16.1246 34.1494 15.9644 34.3146C15.911 34.3697 15.8576 34.4799 15.7509 34.535C15.6975 34.59 15.6441 34.6451 15.5907 34.7553C13.7219 36.9034 11.5328 38.5558 9.02338 39.6574Z" fill="#005EF3"/>
</svg>