<svg width="87" height="56" viewBox="0 0 87 56" fill="none" xmlns="http://www.w3.org/2000/svg">
<path d="M33.3393 9.10795C30.4794 15.6188 23.3411 32.5356 29.8524 39.1213C30.3302 39.6208 30.7349 39.7017 31.2954 40.061C30.4048 40.6033 29.3671 40.092 28.6614 39.4626C20.7507 32.2296 26.6192 15.4543 29.5494 7.42408C30.0166 6.37209 31.2501 5.90469 32.2829 6.37209C33.3393 6.84122 33.802 8.07107 33.3393 9.10795Z" fill="#D4242C"/>
<path d="M25.2193 10.1496C19.5184 10.4332 10.9919 16.3895 17.8795 21.097C19.5184 22.2046 22.1803 23.5299 22.2102 25.9094C25.3088 26.6583 23.1572 32.2624 20.4817 34.4358C16.7078 37.4746 8.06029 43.4063 5.86544 48.137C5.32239 49.8127 3.60849 50.7057 2.02914 50.1375C0.45028 49.5442 -0.374945 47.7152 0.165486 46.0274C4.36155 38.7853 12.0916 34.9643 19.0818 31.4562L18.5741 31.8953C21.5032 29.459 22.255 29.736 22.2102 25.8942C21.2033 25.6488 19.5037 24.7507 18.3927 24.3301C3.62341 18.807 14.5565 5.3971 25.4282 3.68311C27.0969 3.74316 28.3927 5.23213 28.3478 7.02101C28.2881 8.80921 26.903 10.2093 25.2343 10.1496H25.2193Z" fill="#405A8A"/>
<path d="M18.8278 47.5944C18.8278 48.0768 18.7084 48.4738 18.4835 48.8276C18.2396 49.1734 17.9095 49.4247 17.443 49.6037C16.9948 49.7829 16.4358 49.8723 15.7742 49.8723C15.1591 49.8723 14.6165 49.7828 14.1652 49.5958C13.7161 49.3947 13.3982 49.156 13.1729 48.8654C12.9624 48.5884 12.8574 48.2931 12.8574 48.0166C12.8574 47.8155 12.9172 47.6554 13.0679 47.5169C13.2028 47.376 13.3677 47.3081 13.58 47.3081C13.7614 47.3081 13.8962 47.3486 14.0007 47.4421C14.1053 47.5323 14.1954 47.6555 14.2851 47.8155C14.4661 48.1367 14.6767 48.3532 14.9169 48.5036C15.1744 48.6561 15.5053 48.7381 15.9389 48.7381C16.2859 48.7381 16.5708 48.6561 16.7984 48.5036C17.025 48.3532 17.1294 48.1737 17.1294 47.987C17.1294 47.686 17.0098 47.4574 16.7834 47.3081C16.5559 47.1666 16.1656 47.0393 15.6398 46.8945C15.0374 46.744 14.5569 46.5942 14.1802 46.4373C13.8068 46.2659 13.5037 46.057 13.2776 45.7884C13.053 45.52 12.9472 45.1907 12.9472 44.7983C12.9472 44.4479 13.053 44.1197 13.2628 43.7977C13.4731 43.4904 13.7767 43.2492 14.1802 43.0694C14.5869 42.8898 15.0822 42.8 15.6548 42.8C16.1056 42.8 16.5109 42.8388 16.8746 42.9283C17.2341 43.018 17.533 43.1589 17.7736 43.3088C18.0153 43.4658 18.1948 43.6419 18.3152 43.8287C18.4377 44.0302 18.5146 44.2092 18.5146 44.3883C18.5146 44.5886 18.4539 44.7464 18.3152 44.8893C18.18 45.0151 17.9854 45.0749 17.7438 45.0749C17.5629 45.0749 17.4131 45.0397 17.2937 44.9254C17.1743 44.8283 17.0251 44.6783 16.8596 44.4778C16.7223 44.3168 16.5709 44.1792 16.3913 44.0678C16.2109 43.9704 15.969 43.9184 15.6697 43.9184C15.3562 43.9184 15.0987 43.9779 14.8867 44.1197C14.6769 44.2548 14.5718 44.418 14.5718 44.6185C14.5718 44.7982 14.647 44.9489 14.7973 45.0694C14.9469 45.1906 15.1596 45.2805 15.4161 45.3459C15.6699 45.4301 16.0296 45.5198 16.4811 45.6391C17.0253 45.7666 17.4583 45.9256 17.8052 46.1074C18.1503 46.2871 18.4081 46.4981 18.5892 46.7438C18.7685 46.9852 18.8581 47.278 18.8581 47.6064L18.8278 47.5944ZM22.0312 43.7914V48.8055C22.0312 49.1561 21.9565 49.4248 21.7922 49.5959C21.625 49.7762 21.4128 49.8669 21.1574 49.8669C20.9004 49.8669 20.6908 49.7762 20.5414 49.5959C20.3772 49.4147 20.3027 49.1561 20.3027 48.8055V43.8289C20.3027 43.4906 20.3772 43.227 20.5414 43.0478C20.7057 42.8688 20.9004 42.8001 21.1574 42.8001C21.4128 42.8001 21.6251 42.89 21.7922 43.0478C21.9565 43.227 22.0312 43.4659 22.0312 43.7675V43.7914ZM21.1726 42.0027C20.931 42.0027 20.7209 41.9166 20.5563 41.7673C20.3922 41.618 20.3027 41.409 20.3027 41.1403C20.3027 40.9015 20.3922 40.6926 20.5712 40.5434C20.7508 40.3674 20.9455 40.3032 21.1883 40.3032C21.4127 40.3032 21.6088 40.3673 21.7921 40.5134C21.9714 40.6627 22.0459 40.8716 22.0459 41.1403C22.0459 41.409 21.9564 41.618 21.7921 41.7673C21.6249 41.9166 21.4127 42.0027 21.1883 42.0027H21.1726ZM29.6112 46.4674V48.7759C29.6112 49.1412 29.533 49.4147 29.3672 49.6037C29.2019 49.7829 28.9751 49.8723 28.7061 49.8723C28.4375 49.8723 28.2284 49.7828 28.0623 49.6037C27.894 49.4247 27.8183 49.1561 27.8183 48.7759V46.0167C27.8183 45.5797 27.803 45.2245 27.7728 44.9856C27.743 44.7466 27.6678 44.5592 27.5327 44.3885C27.3969 44.2392 27.1865 44.1576 26.9178 44.1576C26.3476 44.1576 25.969 44.3585 25.7876 44.7466C25.6073 45.1348 25.5178 45.699 25.5178 46.4374V48.7759C25.5178 49.1412 25.4431 49.4147 25.279 49.5959C25.1148 49.7762 24.9037 49.8669 24.6309 49.8669C24.3749 49.8669 24.1483 49.7762 23.9836 49.5959C23.8192 49.4147 23.7297 49.1261 23.7297 48.7759V43.7978C23.7297 43.4659 23.8043 43.2269 23.9535 43.0478C24.1035 42.89 24.2995 42.8001 24.5558 42.8001C24.7984 42.8001 24.9951 42.8688 25.1597 43.0395C25.3238 43.1971 25.3984 43.4061 25.3984 43.7017V43.8585C25.6976 43.4958 26.0139 43.2269 26.3609 43.0695C26.7088 42.8986 27.0821 42.809 27.5023 42.809C27.9413 42.809 28.318 42.8987 28.6314 43.0695C28.9449 43.2492 29.2018 43.4957 29.4117 43.851C29.7165 43.4904 30.0166 43.2269 30.3599 43.0477C30.6895 42.8899 31.0662 42.8 31.4764 42.8C31.954 42.8 32.3586 42.8899 32.7049 43.0775C33.0553 43.2568 33.3094 43.5256 33.4735 43.8809C33.6229 44.1878 33.6976 44.6866 33.6976 45.3704V48.7676C33.6976 49.1259 33.6229 49.3946 33.4587 49.5957C33.2944 49.776 33.0706 49.8667 32.7983 49.8667C32.5392 49.8667 32.3135 49.776 32.1483 49.5957C31.984 49.4145 31.8944 49.1259 31.8944 48.7758V45.8635C31.8944 45.4899 31.8795 45.1907 31.8497 44.9555C31.8198 44.7382 31.7303 44.559 31.5959 44.3884C31.4614 44.2391 31.2501 44.1575 30.9607 44.1575C30.7348 44.1575 30.5092 44.2219 30.3152 44.3783C30.1063 44.5077 29.957 44.6867 29.8376 44.9179C29.7018 45.1944 29.6415 45.7287 29.6415 46.4672H29.6112V46.4674ZM41.8641 46.3258C41.8641 46.834 41.7884 47.3165 41.6253 47.7558C41.46 48.1976 41.2351 48.5645 40.9209 48.8872C40.616 49.2036 40.2388 49.4444 39.821 49.6037C39.4013 49.7762 38.9168 49.8669 38.3907 49.8669C37.8663 49.8669 37.3962 49.7762 36.9606 49.6037C36.5427 49.4443 36.1823 49.2035 35.8621 48.8655C35.5465 48.5586 35.3217 48.1737 35.1576 47.7558C34.9933 47.3165 34.9188 46.8598 34.9188 46.3258C34.9188 45.799 34.9933 45.3163 35.1576 44.8895C35.3218 44.448 35.5466 44.068 35.8475 43.7614C36.1525 43.4362 36.513 43.2194 36.9458 43.0395C37.3813 42.8688 37.8517 42.7793 38.3763 42.7793C38.9012 42.7793 39.3853 42.8688 39.8055 43.0395C40.2251 43.1971 40.6001 43.4362 40.9041 43.7614C41.2054 44.0679 41.4465 44.448 41.5957 44.8895C41.7586 45.3163 41.8345 45.799 41.8345 46.3175L41.8641 46.3258ZM40.1194 46.3258C40.1194 45.6174 39.9701 45.0696 39.656 44.6785C39.341 44.2815 38.9167 44.0899 38.3906 44.0899C38.0475 44.0899 37.7611 44.1794 37.4861 44.3585C37.2309 44.5375 37.0202 44.7984 36.8858 45.1348C36.7516 45.49 36.677 45.8915 36.677 46.3473C36.677 46.8 36.7516 47.1964 36.8858 47.5323C37.0202 47.8752 37.2158 48.1368 37.471 48.318C37.7312 48.4983 38.0324 48.5884 38.3762 48.5884C38.901 48.5884 39.3247 48.3828 39.6416 47.987C39.9563 47.5943 40.1055 47.0393 40.1055 46.3472L40.1194 46.3258ZM44.815 43.7614V43.9705C45.1152 43.5558 45.4553 43.2568 45.8192 43.0776C46.1776 42.8899 46.6065 42.8001 47.0635 42.8001C47.5171 42.8001 47.9472 42.8987 48.3057 43.0994C48.6656 43.2868 48.9385 43.5817 49.1175 43.9408C49.2371 44.1497 49.3053 44.3785 49.3349 44.6272C49.3652 44.866 49.3862 45.1908 49.3862 45.5797V48.8055C49.3862 49.1561 49.3052 49.4248 49.1473 49.5959C48.9718 49.7762 48.7886 49.8669 48.5233 49.8669C48.2762 49.8669 48.0663 49.7762 47.8963 49.5959C47.7257 49.4147 47.6575 49.1561 47.6575 48.8055V45.908C47.6575 45.3408 47.5767 44.8958 47.4188 44.5889C47.2477 44.2816 46.9349 44.1278 46.4665 44.1278C46.1477 44.1278 45.8793 44.222 45.6303 44.4093C45.3659 44.5889 45.1857 44.8361 45.0664 45.1646C44.977 45.4304 44.9349 45.9079 44.9349 46.6242V48.8055C44.9349 49.1561 44.8576 49.4248 44.6916 49.6037C44.5289 49.7829 44.3188 49.8723 44.057 49.8723C43.8044 49.8723 43.607 49.7828 43.4433 49.6037C43.2779 49.4247 43.2046 49.1735 43.2046 48.8276V43.7978C43.2046 43.4659 43.2779 43.2269 43.4134 43.0695C43.5626 42.8986 43.7586 42.8301 43.9974 42.8301C44.1521 42.8301 44.2887 42.8599 44.4229 42.9284C44.5427 43.0097 44.6482 43.1076 44.7219 43.2568C44.7978 43.4061 44.8276 43.5817 44.8276 43.7914L44.815 43.7614ZM52.843 43.7914V48.8055C52.843 49.1561 52.7624 49.4248 52.6044 49.5959C52.4332 49.7762 52.2223 49.8669 51.9746 49.8669C51.7116 49.8669 51.5027 49.7762 51.3533 49.5959C51.1828 49.4147 51.1147 49.1561 51.1147 48.8055V43.8289C51.1147 43.4906 51.1828 43.227 51.3533 43.0478C51.5243 42.8688 51.7116 42.8001 51.9746 42.8001C52.2223 42.8001 52.4332 42.89 52.6044 43.0478C52.7624 43.227 52.843 43.4659 52.843 43.7675V43.7914ZM51.9802 42.0027C51.7414 42.0027 51.5326 41.9166 51.375 41.7673C51.2041 41.618 51.1146 41.409 51.1146 41.1403C51.1146 40.9015 51.2041 40.6926 51.383 40.5434C51.5624 40.3674 51.7641 40.3032 52.0059 40.3032C52.2221 40.3032 52.4251 40.3673 52.6043 40.5134C52.7833 40.6627 52.8639 40.8716 52.8639 41.1403C52.8639 41.409 52.7623 41.618 52.6043 41.7673C52.4331 41.9166 52.2222 42.0027 52.0059 42.0027H51.9802ZM54.7425 42.9583H54.9299V41.9124C54.9299 41.618 54.9299 41.409 54.9523 41.2512C54.9597 41.0807 55.0123 40.9394 55.0719 40.8419C55.1388 40.7226 55.2283 40.6329 55.374 40.5491C55.5004 40.4838 55.6434 40.4534 55.7927 40.4534C56.0214 40.4534 56.2105 40.5435 56.3896 40.6927C56.5089 40.7902 56.5913 40.9315 56.6214 41.1014C56.6517 41.2598 56.6583 41.4901 56.6583 41.7674V42.9584H57.2906C57.5293 42.9584 57.7301 43.0182 57.8495 43.1376C57.9906 43.2569 58.0502 43.4062 58.0502 43.5856C58.0502 43.8214 57.9605 43.9782 57.76 44.09C57.5808 44.1795 57.3122 44.222 56.957 44.222H56.6284V47.4084C56.6284 47.6861 56.6516 47.8969 56.6583 48.0467C56.681 48.1977 56.7413 48.3182 56.8076 48.4088C56.8973 48.4985 57.0432 48.5346 57.2227 48.5346C57.3201 48.5346 57.4614 48.5285 57.6188 48.4739C57.8106 48.4438 57.939 48.413 58.0285 48.413C58.1706 48.413 58.2973 48.4739 58.4124 48.5886C58.5325 48.7083 58.5662 48.8357 58.5662 49.0069C58.5662 49.2953 58.4168 49.5058 58.118 49.6556C57.8197 49.8066 57.3802 49.8724 56.8033 49.8724C56.262 49.8724 55.8306 49.7829 55.5601 49.6038C55.2838 49.4248 55.1022 49.1736 55.0124 48.8576C54.9221 48.5346 54.8703 48.1076 54.8703 47.5663V44.2221H54.6529C54.3925 44.2221 54.2134 44.1578 54.0725 44.0385C53.945 43.9188 53.8851 43.7677 53.8851 43.5857C53.8851 43.4063 53.9506 43.257 54.0942 43.1377C54.2214 43.0184 54.4425 42.9585 54.6909 42.9585H54.7425V42.9583ZM65.7627 46.3473C65.7627 46.8598 65.6863 47.3381 65.516 47.7766C65.3578 48.2035 65.1243 48.5885 64.8178 48.8952C64.5171 49.2159 64.137 49.4544 63.7188 49.6257C63.2987 49.7829 62.8184 49.8724 62.289 49.8724C61.755 49.8724 61.2987 49.7829 60.8588 49.6257C60.4409 49.4544 60.0807 49.2159 59.7569 48.8872C59.4495 48.5645 59.2198 48.1976 59.0487 47.7766C58.8915 47.3381 58.8096 46.8647 58.8096 46.3473C58.8096 45.8184 58.8915 45.3407 59.0487 44.8958C59.2198 44.4692 59.4495 44.09 59.7499 43.7676C60.051 43.4602 60.4107 43.2271 60.84 43.0479C61.2767 42.8901 61.7508 42.8002 62.2671 42.8002C62.7963 42.8002 63.2737 42.8901 63.6967 43.0479C64.1218 43.2195 64.4949 43.4602 64.7932 43.7676C65.0937 44.09 65.3362 44.4692 65.4854 44.8958C65.6564 45.3408 65.7329 45.8184 65.7329 46.3259L65.7627 46.3473ZM64.0175 46.3473C64.0175 45.6394 63.8682 45.0751 63.547 44.6868C63.2392 44.2988 62.8185 44.0981 62.2891 44.0981C61.9379 44.0981 61.6602 44.1879 61.3889 44.3785C61.1276 44.5592 60.9187 44.8063 60.7775 45.16C60.6501 45.4979 60.5689 45.908 60.5689 46.3558C60.5689 46.8038 60.6501 47.2187 60.7775 47.547C60.9187 47.8968 61.1192 48.1439 61.3663 48.3233C61.6301 48.5037 61.9303 48.595 62.2673 48.595C62.7965 48.595 63.2142 48.4088 63.5395 47.9947C63.8469 47.6068 63.9958 47.0472 63.9958 46.3559L64.0175 46.3473ZM68.8606 47.368V48.8276C68.8606 49.1734 68.7849 49.4443 68.6142 49.6256C68.4566 49.8064 68.2466 49.8961 67.9818 49.8961C67.7334 49.8961 67.5341 49.8064 67.3712 49.6256C67.2057 49.4443 67.1249 49.1859 67.1249 48.8355V44.0004C67.1249 43.2194 67.4147 42.8302 67.9757 42.8302C68.2512 42.8302 68.4636 42.9196 68.5837 43.0994C68.7252 43.2799 68.7848 43.5508 68.7941 43.9109C69.0123 43.5508 69.2229 43.2799 69.4321 43.0994C69.6506 42.9196 69.9458 42.8302 70.3045 42.8302C70.6628 42.8302 71.0209 42.9196 71.375 43.0994C71.7101 43.2799 71.8837 43.5215 71.8837 43.8212C71.8837 44.0302 71.802 44.2093 71.6489 44.3481C71.4989 44.4779 71.3492 44.5591 71.1703 44.5591C71.1105 44.5591 70.9613 44.5078 70.7111 44.4391C70.4694 44.3585 70.2449 44.3169 70.0658 44.3169C69.8006 44.3169 69.591 44.3784 69.4419 44.5078C69.2825 44.6486 69.1616 44.8361 69.0718 45.1049C68.9805 45.3705 68.9203 45.677 68.8908 46.0571C68.8607 46.4153 68.8448 46.8597 68.8448 47.376L68.8606 47.368Z" fill="#808080"/>
<path d="M33.0252 0.0111883C33.1152 -0.00372945 33.1899 -0.00372945 33.2795 0.0111883C39.401 0.101179 34.9185 7.40915 31.0662 3.96721C29.4869 2.55225 30.4493 0.599666 32.752 0.0713437C32.8438 0.0412175 32.9335 0.0261061 33.0252 0.0111883ZM33.2795 1.87698C32.9949 1.92241 32.7047 2.02935 32.5993 2.28334C31.9539 3.89253 35.9867 1.83213 33.2795 1.87698Z" fill="#D4242C"/>
<path d="M18.4375 32.2592V32.2295C18.4835 31.695 19.0371 31.4561 19.4436 31.2553C19.7137 31.106 20.0783 31.2172 20.2281 31.4859C20.3774 31.7546 20.2729 32.1128 20.0001 32.2622C19.8339 32.3489 19.6838 32.4141 19.5485 32.5058C19.4578 32.7368 19.2316 32.8861 18.9773 32.8645C18.6638 32.8347 18.4233 32.5657 18.4538 32.2592H18.4375Z" fill="#405A8A"/>
<path d="M18.9922 31.874V31.8441C19.0371 31.328 19.5941 31.0763 20 30.8889C20.2728 30.7398 20.6311 30.8365 20.7809 31.106C20.931 31.3875 20.8258 31.7459 20.5563 31.8951C20.3922 31.9634 20.243 32.0482 20.1081 32.1379C20.0159 32.3521 19.7888 32.5057 19.5337 32.4979C19.2167 32.4682 18.9772 32.1996 19.0071 31.874H18.9922Z" fill="#405A8A"/>
<path d="M18.6934 32.0833V32.0533C18.7381 31.5372 19.2911 31.2857 19.6987 31.0983C19.9694 30.949 20.3324 31.0469 20.4817 31.3284C20.6309 31.5972 20.5263 31.9554 20.2577 32.1083C20.0931 32.1728 19.9397 32.2597 19.8035 32.3493C19.7136 32.5661 19.4887 32.7155 19.2316 32.7074C18.9174 32.6775 18.6785 32.4088 18.7084 32.0833H18.6934Z" fill="#405A8A"/>
<path d="M18.7832 32.015V31.9851C18.828 31.4564 19.3827 31.2177 19.7889 31.017C20.0635 30.8667 20.4222 30.9789 20.5714 31.2474C20.7211 31.5162 20.6162 31.8744 20.3475 32.0237C20.1832 32.1083 20.0327 32.1728 19.8943 32.2627C19.8036 32.4985 19.5794 32.6477 19.322 32.6261C19.0072 32.5962 18.7682 32.3225 18.798 32.015H18.7832Z" fill="#405A8A"/>
<path d="M33.3992 1.63525C34.0275 1.63525 34.5431 1.9989 34.5431 2.43268C34.5431 2.8681 34.0275 3.22971 33.3992 3.22971C32.7687 3.22971 32.2529 2.8682 32.2529 2.43268C32.2529 1.9989 32.7686 1.63525 33.3992 1.63525Z" fill="#D4242C"/>
<path d="M73.8072 43.3397H73.4714V41.7077H74.2389C74.3582 41.7077 74.4697 41.7301 74.5374 41.7674C74.6222 41.8218 74.6823 41.8569 74.7168 41.9415C74.7728 42.0068 74.777 42.0927 74.777 42.1825C74.777 42.3018 74.7424 42.3914 74.6571 42.4809C74.592 42.5706 74.4777 42.6129 74.3488 42.6301C74.4179 42.6601 74.4697 42.6897 74.5074 42.7495C74.562 42.8001 74.6223 42.89 74.6824 43.0181L74.868 43.3466H74.4698L74.3285 43.0995C74.2687 42.9797 74.2091 42.89 74.1695 42.839C74.1195 42.7794 74.0796 42.7495 74.0301 42.7196C73.9885 42.7089 73.9403 42.6897 73.8677 42.6897H73.7776V43.3466L73.8072 43.3397ZM73.8072 41.9729V42.3993H74.0796C74.1992 42.3993 74.2892 42.3914 74.3488 42.3614C74.4101 42.3317 74.4397 42.2719 74.4397 42.1824C74.4397 42.1224 74.4101 42.0625 74.3583 42.0329C74.2985 42.0026 74.2295 41.9728 74.1096 41.9728H73.8072V41.9729ZM74.1694 40.9912C74.3787 40.9912 74.5671 41.0419 74.7474 41.1106C74.9285 41.1913 75.1016 41.3109 75.2509 41.4388C75.3865 41.5802 75.5063 41.7376 75.5791 41.9415C75.6579 42.1225 75.6987 42.3318 75.6987 42.5191C75.6987 42.8002 75.627 43.0479 75.4896 43.2869C75.3559 43.5259 75.1708 43.7073 74.9285 43.8513C74.6871 43.9783 74.4396 44.0603 74.1694 44.0603C73.898 44.0603 73.6419 43.9782 73.4029 43.8513C73.1637 43.7073 72.9838 43.5259 72.8387 43.2869C72.7101 43.0479 72.6299 42.8003 72.6299 42.5191C72.6299 42.2495 72.7101 42.0028 72.8387 41.7612C72.9838 41.5202 73.1637 41.3412 73.4029 41.2003C73.6419 41.071 73.898 40.9912 74.1694 40.9912ZM74.1694 41.2898C73.9402 41.2898 73.7314 41.3493 73.5524 41.4606C73.3485 41.5583 73.1982 41.7077 73.1042 41.9126C72.988 42.0988 72.9284 42.302 72.9284 42.5192C72.9284 42.7497 72.988 42.9585 73.1042 43.1377C73.1982 43.3398 73.3484 43.4908 73.5524 43.5857C73.7469 43.7019 73.9402 43.7617 74.1694 43.7617C74.388 43.7617 74.5972 43.7019 74.7769 43.5857C74.9585 43.4908 75.1112 43.3398 75.2344 43.1377C75.3404 42.9504 75.4001 42.7497 75.4001 42.5192C75.4001 42.302 75.3404 42.0928 75.2344 41.9126C75.1314 41.7077 74.9819 41.5583 74.7769 41.4606C74.5919 41.3493 74.388 41.2898 74.1694 41.2898Z" fill="#888888"/>
</svg>
