<svg width="200" height="201" viewBox="0 0 200 201" fill="none" xmlns="http://www.w3.org/2000/svg">
<path fill-rule="evenodd" clip-rule="evenodd" d="M70.8178 40.5189C126.027 3.57536 179.126 101.487 152.573 146.382C129.959 184.619 61.461 173.197 45.6597 121.493C35.9011 89.5607 42.6443 59.3712 70.8178 40.5189Z" fill="#D7EDFA"/>
<path fill-rule="evenodd" clip-rule="evenodd" d="M34.7014 109.535C19.5255 46.8593 126.519 31.2617 158.536 70.4883C185.804 103.897 152.462 162.486 100.059 159.571C67.6957 157.771 42.4456 141.518 34.7014 109.535Z" fill="#A1D7EF"/>
<path fill-rule="evenodd" clip-rule="evenodd" d="M40.266 54.24C41.1663 54.24 42.0578 54.4173 42.8896 54.7619C43.7214 55.1064 44.4772 55.6114 45.1138 56.248C45.7504 56.8846 46.2554 57.6404 46.6 58.4722C46.9445 59.304 47.1218 60.1955 47.1218 61.0958C47.1218 62.4518 46.7198 63.7773 45.9664 64.9047C45.2131 66.0322 44.1424 66.9109 42.8896 67.4298C41.6369 67.9487 40.2584 68.0845 38.9285 67.8199C37.5986 67.5554 36.377 66.9025 35.4182 65.9437C34.4594 64.9848 33.8064 63.7633 33.5419 62.4334C33.2774 61.1034 33.4131 59.725 33.932 58.4722C34.4509 57.2195 35.3297 56.1487 36.4571 55.3954C37.5845 54.6421 38.91 54.24 40.266 54.24Z" fill="#A1D7EF"/>
<path fill-rule="evenodd" clip-rule="evenodd" d="M57.5965 151.369C7.40163 119.431 68.5212 40.5942 114.901 46.1722C154.402 50.923 169.739 111.196 133.05 142.794C110.392 162.309 83.2109 167.668 57.5965 151.369Z" fill="#C1E4F5"/>
<path fill-rule="evenodd" clip-rule="evenodd" d="M57.4868 102.023C57.4868 102.857 57.271 103.607 56.8394 104.274C56.4111 104.941 55.7799 105.462 54.9489 105.839C54.118 106.216 53.1325 106.403 51.9957 106.403C50.6301 106.403 49.5029 106.145 48.6172 105.633C47.9892 105.263 47.4803 104.767 47.0874 104.148C46.6945 103.53 46.498 102.928 46.498 102.342C46.498 102.003 46.6172 101.714 46.8523 101.469C47.0874 101.227 47.3869 101.108 47.7508 101.108C48.0472 101.108 48.2951 101.202 48.4981 101.391C48.7042 101.578 48.8781 101.859 49.023 102.232C49.1969 102.67 49.3902 103.04 49.5931 103.334C49.7992 103.63 50.0858 103.875 50.4562 104.068C50.8298 104.258 51.3161 104.354 51.9216 104.354C52.7493 104.354 53.4256 104.161 53.9441 103.775C54.4626 103.388 54.7235 102.905 54.7235 102.325C54.7235 101.865 54.585 101.491 54.3048 101.208C54.0246 100.921 53.6607 100.702 53.2163 100.551C52.775 100.4 52.1792 100.239 51.4384 100.068C50.4465 99.8359 49.6124 99.5622 48.9457 99.253C48.2758 98.9406 47.7444 98.5155 47.3515 97.9777C46.9586 97.4398 46.7621 96.7731 46.7621 95.9712C46.7621 95.2111 46.9683 94.5348 47.3837 93.9422C47.7992 93.3529 48.4014 92.8987 49.1873 92.5799C49.9731 92.2611 50.8974 92.1033 51.9602 92.1033C52.8072 92.1033 53.5415 92.2095 54.1631 92.4189C54.7815 92.6315 55.2968 92.9116 55.7058 93.2595C56.1116 93.6073 56.4111 93.9744 56.6011 94.3577C56.7879 94.7409 56.8845 95.1177 56.8845 95.4817C56.8845 95.8134 56.7654 96.1161 56.5303 96.3835C56.2952 96.6508 55.9988 96.7828 55.6478 96.7828C55.3257 96.7828 55.0842 96.7023 54.9167 96.5445C54.7493 96.3835 54.5689 96.1194 54.3756 95.7554C54.1213 95.2337 53.8217 94.8247 53.4675 94.5316C53.1164 94.2386 52.5496 94.0936 51.767 94.0936C51.0456 94.0936 50.4594 94.2514 50.0182 94.5703C49.5737 94.8891 49.3515 95.2691 49.3515 95.7168C49.3515 95.9938 49.4256 96.2321 49.577 96.435C49.7283 96.6347 49.9376 96.8086 50.2018 96.9535C50.4658 97.0984 50.7332 97.2111 51.0037 97.2949C51.2742 97.3754 51.7219 97.4946 52.3434 97.6524C53.1228 97.836 53.8314 98.0356 54.4626 98.2579C55.0938 98.4769 55.6317 98.7442 56.0761 99.0598C56.5206 99.3722 56.8652 99.7715 57.1132 100.251C57.3612 100.735 57.4868 101.324 57.4868 102.023ZM59.9795 104.696V93.8005C59.9795 93.2337 60.1083 92.8118 60.366 92.5284C60.6237 92.245 60.9586 92.1033 61.3676 92.1033C61.7863 92.1033 62.1277 92.2417 62.3885 92.5219C62.6494 92.8021 62.7815 93.2273 62.7815 93.8005V104.696C62.7815 105.269 62.6494 105.694 62.3885 105.978C62.1277 106.261 61.7863 106.403 61.3676 106.403C60.965 106.403 60.6333 106.261 60.3725 105.974C60.1116 105.688 59.9795 105.263 59.9795 104.696ZM70.585 104.084L68.366 95.2723V104.818C68.366 105.346 68.2469 105.743 68.0117 106.007C67.7767 106.271 67.4643 106.403 67.0778 106.403C66.7009 106.403 66.3918 106.271 66.1535 106.01C65.9151 105.749 65.796 105.353 65.796 104.818V93.8746C65.796 93.2691 65.9538 92.8634 66.2662 92.6508C66.5818 92.4414 67.0069 92.3351 67.5383 92.3351H68.4079C68.9296 92.3351 69.3064 92.3835 69.5415 92.4769C69.7767 92.5703 69.9538 92.7409 70.0665 92.9857C70.1792 93.2305 70.3081 93.6298 70.453 94.1838L72.4626 101.765L74.4723 94.1838C74.6172 93.6298 74.746 93.2305 74.8588 92.9857C74.9715 92.7409 75.1454 92.5703 75.3805 92.4769C75.6156 92.3835 75.9956 92.3351 76.5174 92.3351H77.3837C77.9183 92.3351 78.3435 92.4414 78.6591 92.6508C78.9715 92.8634 79.1293 93.2691 79.1293 93.8746V104.818C79.1293 105.346 79.0101 105.743 78.775 106.007C78.5399 106.271 78.2243 106.403 77.8314 106.403C77.461 106.403 77.1551 106.271 76.9167 106.007C76.6784 105.743 76.5593 105.346 76.5593 104.818V95.2723L74.3403 104.084C74.1953 104.654 74.0794 105.076 73.986 105.343C73.8958 105.607 73.7283 105.852 73.4836 106.071C73.2356 106.293 72.8974 106.403 72.4626 106.403C72.1341 106.403 71.8571 106.332 71.6317 106.19C71.4062 106.049 71.2291 105.868 71.1035 105.649C70.9779 105.427 70.8781 105.185 70.8072 104.918C70.7332 104.651 70.6591 104.371 70.585 104.084ZM88.0955 92.1033C89.5319 92.1033 90.7622 92.3931 91.7895 92.9761C92.8169 93.5557 93.5963 94.3835 94.1245 95.4559C94.6527 96.5284 94.9168 97.7877 94.9168 99.2337C94.9168 100.303 94.7718 101.276 94.482 102.148C94.1921 103.024 93.7606 103.781 93.1809 104.422C92.6011 105.063 91.8926 105.553 91.0488 105.894C90.205 106.232 89.2421 106.403 88.1535 106.403C87.0713 106.403 86.1019 106.229 85.2485 105.878C84.3918 105.53 83.6801 105.037 83.1068 104.403C82.5335 103.768 82.1019 103.005 81.8088 102.11C81.5158 101.218 81.3709 100.251 81.3709 99.2144C81.3709 98.1516 81.5222 97.1789 81.8282 96.2901C82.1341 95.4044 82.5754 94.6508 83.1551 94.026C83.7316 93.4044 84.4369 92.9277 85.2678 92.5992C86.0955 92.2675 87.0391 92.1033 88.0955 92.1033ZM92.0762 99.2144C92.0762 98.2031 91.9119 97.3239 91.5866 96.5799C91.2581 95.8392 90.7911 95.2788 90.1857 94.8955C89.5802 94.5155 88.8813 94.3255 88.0955 94.3255C87.5383 94.3255 87.0198 94.4318 86.5464 94.6411C86.0697 94.8537 85.6607 95.1596 85.3193 95.5622C84.9779 95.9648 84.7074 96.4801 84.5077 97.1049C84.3113 97.7329 84.2114 98.435 84.2114 99.2144C84.2114 100.003 84.3113 100.712 84.5077 101.35C84.7074 101.984 84.9876 102.512 85.3483 102.931C85.709 103.35 86.1245 103.662 86.5915 103.868C87.0617 104.078 87.5738 104.181 88.1341 104.181C88.8523 104.181 89.5093 104 90.1116 103.643C90.7107 103.285 91.1873 102.731 91.5448 101.981C91.8991 101.234 92.0762 100.309 92.0762 99.2144ZM105.564 94.654H102.508V104.696C102.508 105.276 102.379 105.704 102.118 105.984C101.86 106.264 101.525 106.403 101.116 106.403C100.701 106.403 100.36 106.261 100.099 105.978C99.8378 105.694 99.7058 105.269 99.7058 104.696V94.654H96.6495C96.1696 94.654 95.8153 94.5477 95.5834 94.3384C95.3515 94.1258 95.2324 93.8456 95.2324 93.4978C95.2324 93.1403 95.3548 92.8569 95.5963 92.6475C95.8379 92.4382 96.1889 92.3351 96.6495 92.3351H105.564C106.05 92.3351 106.408 92.4414 106.646 92.6572C106.881 92.873 107 93.1532 107 93.4978C107 93.8456 106.878 94.1258 106.64 94.3384C106.401 94.5477 106.044 94.654 105.564 94.654ZM114.485 92.1033C115.922 92.1033 117.152 92.3931 118.179 92.9761C119.207 93.5557 119.986 94.3835 120.514 95.4559C121.042 96.5284 121.306 97.7877 121.306 99.2337C121.306 100.303 121.161 101.276 120.872 102.148C120.582 103.024 120.15 103.781 119.571 104.422C118.991 105.063 118.282 105.553 117.439 105.894C116.595 106.232 115.632 106.403 114.543 106.403C113.461 106.403 112.492 106.229 111.638 105.878C110.782 105.53 110.07 105.037 109.496 104.403C108.923 103.768 108.492 103.005 108.199 102.11C107.905 101.218 107.761 100.251 107.761 99.2144C107.761 98.1516 107.912 97.1789 108.218 96.2901C108.524 95.4044 108.965 94.6508 109.545 94.026C110.121 93.4044 110.827 92.9277 111.657 92.5992C112.485 92.2675 113.429 92.1033 114.485 92.1033ZM118.466 99.2144C118.466 98.2031 118.302 97.3239 117.976 96.5799C117.648 95.8392 117.181 95.2788 116.575 94.8955C115.97 94.5155 115.271 94.3255 114.485 94.3255C113.928 94.3255 113.41 94.4318 112.936 94.6411C112.459 94.8537 112.05 95.1596 111.709 95.5622C111.368 95.9648 111.097 96.4801 110.897 97.1049C110.701 97.7329 110.601 98.435 110.601 99.2144C110.601 100.003 110.701 100.712 110.897 101.35C111.097 101.984 111.377 102.512 111.738 102.931C112.099 103.35 112.514 103.662 112.981 103.868C113.451 104.078 113.963 104.181 114.524 104.181C115.242 104.181 115.899 104 116.501 103.643C117.1 103.285 117.577 102.731 117.934 101.981C118.289 101.234 118.466 100.309 118.466 99.2144ZM127.361 93.7844L132.746 101.939V93.7071C132.746 93.1725 132.862 92.7731 133.091 92.5058C133.319 92.2385 133.628 92.1033 134.018 92.1033C134.418 92.1033 134.736 92.2353 134.968 92.5026C135.2 92.7699 135.316 93.1725 135.316 93.7071V104.583C135.316 105.797 134.814 106.403 133.809 106.403C133.558 106.403 133.332 106.367 133.129 106.293C132.93 106.222 132.74 106.107 132.566 105.952C132.389 105.794 132.228 105.611 132.076 105.398C131.925 105.189 131.773 104.973 131.622 104.754L126.369 96.7023V104.799C126.369 105.327 126.247 105.726 126.002 105.997C125.754 106.268 125.438 106.403 125.055 106.403C124.659 106.403 124.34 106.268 124.102 105.994C123.86 105.72 123.741 105.321 123.741 104.799V94.1323C123.741 93.6781 123.793 93.3239 123.893 93.0662C124.012 92.7828 124.211 92.5509 124.488 92.3706C124.765 92.1934 125.065 92.1033 125.384 92.1033C125.638 92.1033 125.854 92.1451 126.031 92.2257C126.211 92.3094 126.369 92.4189 126.505 92.5574C126.64 92.6959 126.778 92.873 126.92 93.0952C127.062 93.3142 127.21 93.5429 127.361 93.7844ZM147.5 94.4994H141.187V97.9004H147C147.429 97.9004 147.748 97.997 147.957 98.187C148.17 98.377 148.273 98.6315 148.273 98.9439C148.273 99.2563 148.17 99.5139 147.963 99.7103C147.754 99.9068 147.435 100.007 147 100.007H141.187V103.949H147.715C148.157 103.949 148.488 104.052 148.711 104.255C148.936 104.458 149.049 104.731 149.049 105.069C149.049 105.395 148.936 105.662 148.711 105.865C148.488 106.068 148.157 106.171 147.715 106.171H140.102C139.493 106.171 139.055 106.036 138.788 105.765C138.521 105.495 138.385 105.057 138.385 104.454V94.0517C138.385 93.6491 138.447 93.3207 138.566 93.0662C138.685 92.8118 138.872 92.625 139.126 92.5091C139.38 92.3931 139.706 92.3351 140.102 92.3351H147.5C147.947 92.3351 148.279 92.435 148.495 92.6315C148.711 92.8311 148.82 93.092 148.82 93.4108C148.82 93.7393 148.711 94.0034 148.495 94.2031C148.279 94.3995 147.947 94.4994 147.5 94.4994Z" fill="#002348"/>
<path fill-rule="evenodd" clip-rule="evenodd" d="M69.6137 119.294C70.5395 119.294 71.2279 118.997 71.6788 118.403C72.1297 117.808 72.3552 117.056 72.3552 116.146C72.3552 115.244 72.1497 114.526 71.7386 113.991C71.3276 113.456 70.6712 113.189 69.7694 113.189C69.051 113.189 68.4405 113.345 67.9377 113.656C67.7142 113.808 67.6504 113.963 67.7462 114.123C67.834 114.274 68.0056 114.286 68.2609 114.159C68.7558 113.927 69.2306 113.811 69.6856 113.811C70.9066 113.811 71.5611 114.494 71.6489 115.859H68.9194C68.8236 115.859 68.7458 115.887 68.6859 115.942C68.6261 115.998 68.5961 116.07 68.5961 116.158C68.5961 116.357 68.7039 116.457 68.9194 116.457H71.6489C71.5531 117.934 70.8588 118.672 69.5658 118.672C69.1189 118.672 68.648 118.564 68.1532 118.349C67.8818 118.221 67.7023 118.237 67.6145 118.397C67.5187 118.572 67.5746 118.728 67.7821 118.863C68.2609 119.151 68.8715 119.294 69.6137 119.294ZM73.4925 118.792C73.4925 119.047 73.6042 119.175 73.8277 119.175C74.0512 119.175 74.1629 119.047 74.1629 118.792V116.457L77.0121 119.019C77.2435 119.219 77.4271 119.235 77.5628 119.067C77.7064 118.899 77.6825 118.728 77.491 118.552L74.7974 116.17L77.2156 113.895C77.3992 113.712 77.4191 113.548 77.2755 113.404C77.1238 113.253 76.9522 113.273 76.7607 113.464L74.1629 116.014V113.692C74.1629 113.436 74.0512 113.309 73.8277 113.309C73.6042 113.309 73.4925 113.436 73.4925 113.692V118.792ZM78.1853 116.242C78.1853 117.12 78.4367 117.848 78.9395 118.427C79.4423 119.005 80.1406 119.294 81.0345 119.294C81.9284 119.294 82.6267 119.005 83.1295 118.427C83.6323 117.848 83.8837 117.12 83.8837 116.242C83.8837 115.364 83.6323 114.636 83.1295 114.057C82.6267 113.478 81.9284 113.189 81.0345 113.189C80.1406 113.189 79.4423 113.478 78.9395 114.057C78.4367 114.636 78.1853 115.364 78.1853 116.242ZM78.8796 116.242C78.8796 115.499 79.0712 114.909 79.4543 114.47C79.8374 114.031 80.3641 113.811 81.0345 113.811C81.7049 113.811 82.2317 114.031 82.6148 114.47C82.9978 114.909 83.1894 115.499 83.1894 116.242C83.1894 116.984 82.9978 117.575 82.6148 118.013C82.2317 118.452 81.7049 118.672 81.0345 118.672C80.3641 118.672 79.8374 118.452 79.4543 118.013C79.0712 117.575 78.8796 116.984 78.8796 116.242ZM89.4624 118.744C89.7019 118.576 89.7617 118.405 89.642 118.229C89.5382 118.085 89.3467 118.097 89.0674 118.265C88.6125 118.536 88.1216 118.672 87.5949 118.672C86.9484 118.672 86.4476 118.464 86.0925 118.049C85.7373 117.634 85.5597 117.048 85.5597 116.29C85.5597 115.547 85.7652 114.949 86.1763 114.494C86.5873 114.039 87.1001 113.811 87.7146 113.811C88.0977 113.811 88.5247 113.915 88.9956 114.123C89.227 114.227 89.3906 114.203 89.4864 114.051C89.5981 113.859 89.5343 113.696 89.2948 113.56C88.8718 113.313 88.369 113.189 87.7864 113.189C86.9325 113.189 86.2321 113.472 85.6854 114.039C85.1387 114.606 84.8654 115.352 84.8654 116.278C84.8654 117.243 85.0988 117.988 85.5657 118.51C86.0326 119.033 86.709 119.294 87.5949 119.294C88.3212 119.294 88.9437 119.111 89.4624 118.744ZM95.0052 118.792C95.0052 119.047 95.117 119.175 95.3404 119.175C95.5639 119.175 95.6756 119.047 95.6756 118.792V113.692C95.6756 113.436 95.5639 113.309 95.3404 113.309C95.2127 113.309 95.101 113.365 95.0052 113.476L91.4018 118.085V113.692C91.4018 113.436 91.2901 113.309 91.0666 113.309C90.8431 113.309 90.7314 113.436 90.7314 113.692V118.792C90.7314 119.047 90.8431 119.175 91.0666 119.175C91.2023 119.175 91.318 119.119 91.4138 119.007L95.0052 114.434V118.792ZM101.554 118.744C101.793 118.576 101.853 118.405 101.733 118.229C101.629 118.085 101.438 118.097 101.159 118.265C100.704 118.536 100.213 118.672 99.686 118.672C99.0396 118.672 98.5388 118.464 98.1836 118.049C97.8285 117.634 97.6509 117.048 97.6509 116.29C97.6509 115.547 97.8564 114.949 98.2674 114.494C98.6784 114.039 99.1912 113.811 99.8058 113.811C100.189 113.811 100.616 113.915 101.087 114.123C101.318 114.227 101.482 114.203 101.578 114.051C101.689 113.859 101.625 113.696 101.386 113.56C100.963 113.313 100.46 113.189 99.8776 113.189C99.0236 113.189 98.3233 113.472 97.7766 114.039C97.2299 114.606 96.9566 115.352 96.9566 116.278C96.9566 117.243 97.19 117.988 97.6569 118.51C98.1238 119.033 98.8002 119.294 99.686 119.294C100.412 119.294 101.035 119.111 101.554 118.744ZM106.785 113.931C107.001 113.931 107.108 113.827 107.108 113.62C107.108 113.532 107.078 113.458 107.019 113.398C106.959 113.339 106.881 113.309 106.785 113.309H102.284C102.188 113.309 102.11 113.339 102.05 113.398C101.991 113.458 101.961 113.532 101.961 113.62C101.961 113.827 102.068 113.931 102.284 113.931H104.199V118.792C104.199 119.047 104.311 119.175 104.534 119.175C104.758 119.175 104.87 119.047 104.87 118.792V113.931H106.785ZM110.125 118.672C109.503 118.672 109.012 118.49 108.653 118.127C108.294 117.764 108.09 117.243 108.042 116.565H111.705C112.073 116.565 112.284 116.369 112.34 115.978C112.364 115.827 112.376 115.655 112.376 115.464C112.376 114.833 112.18 114.296 111.789 113.853C111.398 113.41 110.831 113.189 110.089 113.189C109.243 113.189 108.577 113.478 108.09 114.057C107.603 114.636 107.36 115.376 107.36 116.278C107.36 117.235 107.591 117.978 108.054 118.504C108.517 119.031 109.207 119.294 110.125 119.294C110.867 119.294 111.474 119.139 111.945 118.828C112.136 118.692 112.184 118.54 112.088 118.373C112.001 118.221 111.841 118.201 111.61 118.313C111.115 118.552 110.62 118.672 110.125 118.672ZM110.041 113.811C110.592 113.811 111.009 113.965 111.292 114.272C111.576 114.58 111.725 114.993 111.741 115.511C111.741 115.711 111.733 115.863 111.717 115.966H108.042C108.09 115.28 108.29 114.749 108.641 114.374C108.992 113.999 109.459 113.811 110.041 113.811ZM113.657 118.792C113.657 119.047 113.761 119.175 113.968 119.175C114.176 119.175 114.279 119.047 114.279 118.792V114.554L116.075 117.08C116.163 117.207 116.271 117.273 116.398 117.277C116.526 117.281 116.638 117.215 116.733 117.08L118.637 114.458V118.792C118.637 119.047 118.749 119.175 118.972 119.175C119.196 119.175 119.307 119.047 119.307 118.792V113.692C119.307 113.436 119.204 113.309 118.996 113.309C118.836 113.309 118.685 113.408 118.541 113.608L116.446 116.469L114.399 113.584C114.279 113.4 114.14 113.309 113.98 113.309C113.765 113.309 113.657 113.436 113.657 113.692V118.792ZM121.462 114.147C122.037 113.923 122.54 113.811 122.971 113.811C124.04 113.811 124.575 114.326 124.575 115.356V115.691C124 115.611 123.477 115.571 123.006 115.571C122.663 115.571 122.344 115.603 122.049 115.667C121.753 115.731 121.474 115.835 121.211 115.978C120.947 116.122 120.738 116.328 120.582 116.595C120.427 116.862 120.349 117.179 120.349 117.547C120.349 118.113 120.524 118.546 120.876 118.846C121.227 119.145 121.698 119.294 122.288 119.294C122.879 119.294 123.366 119.159 123.749 118.887C124.132 118.616 124.407 118.285 124.575 117.894V118.792C124.575 119.047 124.686 119.175 124.91 119.175C125.133 119.175 125.245 119.047 125.245 118.792V115.308C125.245 113.895 124.507 113.189 123.03 113.189C122.32 113.189 121.686 113.333 121.127 113.62C120.911 113.732 120.844 113.883 120.923 114.075C120.995 114.242 121.175 114.266 121.462 114.147ZM122.372 118.672C121.949 118.672 121.622 118.568 121.39 118.361C121.159 118.153 121.043 117.874 121.043 117.523C121.043 116.621 121.73 116.17 123.102 116.17C123.541 116.17 124.032 116.21 124.575 116.29V116.517C124.575 117.044 124.379 117.535 123.988 117.99C123.597 118.444 123.058 118.672 122.372 118.672ZM58.3066 130.825C58.3066 131.064 58.4184 131.208 58.6418 131.256C58.993 131.327 59.5237 131.363 60.234 131.363C61.91 131.363 62.748 130.793 62.748 129.651C62.748 129.252 62.6264 128.937 62.3829 128.706C62.1395 128.474 61.8063 128.33 61.3833 128.275C61.7105 128.179 61.9639 128.003 62.1435 127.748C62.3231 127.492 62.4128 127.205 62.4128 126.886C62.4128 126.439 62.2333 126.078 61.8741 125.803C61.515 125.527 60.9484 125.389 60.1742 125.389C59.5118 125.389 59.001 125.425 58.6418 125.497C58.4184 125.545 58.3066 125.693 58.3066 125.94V130.825ZM60.3538 128.67C60.9683 128.67 61.4052 128.749 61.6646 128.909C61.924 129.069 62.0537 129.32 62.0537 129.663C62.0537 130.03 61.918 130.302 61.6467 130.477C61.3753 130.653 60.9124 130.741 60.258 130.741C59.7791 130.741 59.3522 130.717 58.977 130.669V128.67H60.3538ZM60.1263 126.012C60.677 126.012 61.08 126.088 61.3354 126.239C61.5908 126.391 61.7185 126.643 61.7185 126.994C61.7185 127.353 61.5988 127.626 61.3594 127.814C61.1199 128.001 60.7089 128.095 60.1263 128.095H58.977V126.06C59.3362 126.028 59.7193 126.012 60.1263 126.012ZM63.7297 128.37C63.7297 129.248 63.9811 129.977 64.4839 130.555C64.9867 131.134 65.685 131.423 66.5789 131.423C67.4728 131.423 68.1711 131.134 68.6739 130.555C69.1767 129.977 69.4281 129.248 69.4281 128.37C69.4281 127.492 69.1767 126.764 68.6739 126.186C68.1711 125.607 67.4728 125.318 66.5789 125.318C65.685 125.318 64.9867 125.607 64.4839 126.186C63.9811 126.764 63.7297 127.492 63.7297 128.37ZM64.424 128.37C64.424 127.628 64.6156 127.038 64.9987 126.599C65.3818 126.16 65.9085 125.94 66.5789 125.94C67.2493 125.94 67.7761 126.16 68.1592 126.599C68.5422 127.038 68.7338 127.628 68.7338 128.37C68.7338 129.113 68.5422 129.703 68.1592 130.142C67.7761 130.581 67.2493 130.801 66.5789 130.801C65.9085 130.801 65.3818 130.581 64.9987 130.142C64.6156 129.703 64.424 129.113 64.424 128.37ZM70.7091 130.825C70.7091 131.064 70.8208 131.208 71.0443 131.256C71.3954 131.327 71.9262 131.363 72.6365 131.363C74.3125 131.363 75.1505 130.793 75.1505 129.651C75.1505 129.252 75.0288 128.937 74.7854 128.706C74.542 128.474 74.2088 128.33 73.7858 128.275C74.113 128.179 74.3664 128.003 74.5459 127.748C74.7255 127.492 74.8153 127.205 74.8153 126.886C74.8153 126.439 74.6357 126.078 74.2766 125.803C73.9174 125.527 73.3508 125.389 72.5766 125.389C71.9142 125.389 71.4034 125.425 71.0443 125.497C70.8208 125.545 70.7091 125.693 70.7091 125.94V130.825ZM72.7562 128.67C73.3707 128.67 73.8077 128.749 74.0671 128.909C74.3265 129.069 74.4562 129.32 74.4562 129.663C74.4562 130.03 74.3205 130.302 74.0491 130.477C73.7778 130.653 73.3149 130.741 72.6604 130.741C72.1816 130.741 71.7546 130.717 71.3795 130.669V128.67H72.7562ZM72.5288 126.012C73.0794 126.012 73.4825 126.088 73.7379 126.239C73.9932 126.391 74.121 126.643 74.121 126.994C74.121 127.353 74.0012 127.626 73.7618 127.814C73.5224 128.001 73.1114 128.095 72.5288 128.095H71.3795V126.06C71.7386 126.028 72.1217 126.012 72.5288 126.012ZM75.8448 130.717C75.7491 130.717 75.6812 130.719 75.6413 130.723C75.6014 130.727 75.5555 130.749 75.5037 130.789C75.4518 130.829 75.4219 130.892 75.4139 130.98C75.3979 131.108 75.4378 131.204 75.5336 131.267C75.6294 131.331 75.7491 131.363 75.8927 131.363C76.4195 131.363 76.8146 131.056 77.0779 130.441C77.2136 130.114 77.3293 129.653 77.4251 129.059C77.5208 128.464 77.5827 127.983 77.6106 127.616C77.6386 127.249 77.6685 126.73 77.7004 126.06H79.987V130.92C79.987 131.176 80.0987 131.303 80.3222 131.303C80.5456 131.303 80.6574 131.176 80.6574 130.92V125.808C80.6574 125.561 80.5377 125.437 80.2982 125.437H77.4012C77.3054 125.437 77.2276 125.465 77.1677 125.521C77.1078 125.577 77.0779 125.649 77.0779 125.737C77.0061 127.907 76.8265 129.36 76.5392 130.094C76.3716 130.509 76.1402 130.717 75.8448 130.717ZM84.6798 130.801C84.0573 130.801 83.5664 130.619 83.2073 130.256C82.8482 129.893 82.6446 129.372 82.5968 128.694H86.26C86.6272 128.694 86.8386 128.498 86.8945 128.107C86.9185 127.955 86.9304 127.784 86.9304 127.592C86.9304 126.962 86.7349 126.425 86.3438 125.982C85.9528 125.539 85.3861 125.318 84.6439 125.318C83.7979 125.318 83.1315 125.607 82.6446 126.186C82.1578 126.764 81.9144 127.504 81.9144 128.406C81.9144 129.364 82.1458 130.106 82.6087 130.633C83.0716 131.16 83.762 131.423 84.6798 131.423C85.422 131.423 86.0286 131.267 86.4995 130.956C86.691 130.821 86.7389 130.669 86.6431 130.501C86.5553 130.35 86.3957 130.33 86.1643 130.441C85.6694 130.681 85.1746 130.801 84.6798 130.801ZM84.596 125.94C85.1467 125.94 85.5637 126.094 85.847 126.401C86.1304 126.708 86.28 127.121 86.296 127.64C86.296 127.84 86.288 127.991 86.272 128.095H82.5968C82.6446 127.409 82.8441 126.878 83.1953 126.503C83.5465 126.128 84.0134 125.94 84.596 125.94ZM88.379 125.82C88.379 125.565 88.2673 125.437 88.0438 125.437C87.8203 125.437 87.7086 125.565 87.7086 125.82V127.221C87.7086 127.995 87.8722 128.538 88.1994 128.849C88.5266 129.161 89.0254 129.316 89.6959 129.316C90.2705 129.316 90.8092 129.157 91.312 128.837V130.92C91.312 131.176 91.4237 131.303 91.6472 131.303C91.8707 131.303 91.9824 131.176 91.9824 130.92V125.82C91.9824 125.565 91.8707 125.437 91.6472 125.437C91.4237 125.437 91.312 125.565 91.312 125.82V128.155C90.8571 128.514 90.3423 128.694 89.7677 128.694C89.2649 128.694 88.9077 128.572 88.6962 128.328C88.4848 128.085 88.379 127.684 88.379 127.125V125.82ZM96.0288 130.801C95.4062 130.801 94.9154 130.619 94.5563 130.256C94.1971 129.893 93.9936 129.372 93.9457 128.694H97.609C97.9761 128.694 98.1876 128.498 98.2435 128.107C98.2674 127.955 98.2794 127.784 98.2794 127.592C98.2794 126.962 98.0839 126.425 97.6928 125.982C97.3017 125.539 96.7351 125.318 95.9928 125.318C95.1469 125.318 94.4804 125.607 93.9936 126.186C93.5068 126.764 93.2634 127.504 93.2634 128.406C93.2634 129.364 93.4948 130.106 93.9577 130.633C94.4206 131.16 95.111 131.423 96.0288 131.423C96.771 131.423 97.3775 131.267 97.8484 130.956C98.04 130.821 98.0878 130.669 97.9921 130.501C97.9043 130.35 97.7447 130.33 97.5132 130.441C97.0184 130.681 96.5236 130.801 96.0288 130.801ZM95.945 125.94C96.4956 125.94 96.9126 126.094 97.196 126.401C97.4793 126.708 97.629 127.121 97.6449 127.64C97.6449 127.84 97.6369 127.991 97.621 128.095H93.9457C93.9936 127.409 94.1931 126.878 94.5443 126.503C94.8955 126.128 95.3624 125.94 95.945 125.94ZM103.75 127.963H100.231V125.82C100.231 125.565 100.119 125.437 99.8956 125.437C99.6721 125.437 99.5604 125.565 99.5604 125.82V130.92C99.5604 131.176 99.6721 131.303 99.8956 131.303C100.119 131.303 100.231 131.176 100.231 130.92V128.586H103.75V130.92C103.75 131.176 103.862 131.303 104.086 131.303C104.309 131.303 104.421 131.176 104.421 130.92V125.82C104.421 125.565 104.309 125.437 104.086 125.437C103.862 125.437 103.75 125.565 103.75 125.82V127.963ZM110.191 127.963H106.671V125.82C106.671 125.565 106.56 125.437 106.336 125.437C106.113 125.437 106.001 125.565 106.001 125.82V130.92C106.001 131.176 106.113 131.303 106.336 131.303C106.56 131.303 106.671 131.176 106.671 130.92V128.586H110.191V130.92C110.191 131.176 110.303 131.303 110.526 131.303C110.75 131.303 110.861 131.176 110.861 130.92V125.82C110.861 125.565 110.75 125.437 110.526 125.437C110.303 125.437 110.191 125.565 110.191 125.82V127.963ZM112.142 128.37C112.142 129.248 112.394 129.977 112.897 130.555C113.399 131.134 114.098 131.423 114.992 131.423C115.885 131.423 116.584 131.134 117.087 130.555C117.589 129.977 117.841 129.248 117.841 128.37C117.841 127.492 117.589 126.764 117.087 126.186C116.584 125.607 115.885 125.318 114.992 125.318C114.098 125.318 113.399 125.607 112.897 126.186C112.394 126.764 112.142 127.492 112.142 128.37ZM112.837 128.37C112.837 127.628 113.028 127.038 113.411 126.599C113.794 126.16 114.321 125.94 114.992 125.94C115.662 125.94 116.189 126.16 116.572 126.599C116.955 127.038 117.146 127.628 117.146 128.37C117.146 129.113 116.955 129.703 116.572 130.142C116.189 130.581 115.662 130.801 114.992 130.801C114.321 130.801 113.794 130.581 113.411 130.142C113.028 129.703 112.837 129.113 112.837 128.37ZM123.419 130.872C123.659 130.705 123.719 130.533 123.599 130.358C123.495 130.214 123.304 130.226 123.024 130.394C122.57 130.665 122.079 130.801 121.552 130.801C120.905 130.801 120.405 130.593 120.05 130.178C119.694 129.763 119.517 129.176 119.517 128.418C119.517 127.676 119.722 127.077 120.133 126.623C120.544 126.168 121.057 125.94 121.672 125.94C122.055 125.94 122.482 126.044 122.953 126.251C123.184 126.355 123.348 126.331 123.443 126.18C123.555 125.988 123.491 125.824 123.252 125.689C122.829 125.441 122.326 125.318 121.743 125.318C120.89 125.318 120.189 125.601 119.642 126.168C119.096 126.734 118.822 127.481 118.822 128.406C118.822 129.372 119.056 130.116 119.523 130.639C119.99 131.162 120.666 131.423 121.552 131.423C122.278 131.423 122.901 131.24 123.419 130.872ZM128.651 126.06C128.866 126.06 128.974 125.956 128.974 125.749C128.974 125.661 128.944 125.587 128.884 125.527C128.825 125.467 128.747 125.437 128.651 125.437H124.15C124.054 125.437 123.976 125.467 123.916 125.527C123.856 125.587 123.826 125.661 123.826 125.749C123.826 125.956 123.934 126.06 124.15 126.06H126.065V130.92C126.065 131.176 126.177 131.303 126.4 131.303C126.624 131.303 126.736 131.176 126.736 130.92V126.06H128.651ZM134.05 130.92C134.05 131.176 134.162 131.303 134.385 131.303C134.609 131.303 134.721 131.176 134.721 130.92V125.82C134.721 125.565 134.609 125.437 134.385 125.437C134.258 125.437 134.146 125.493 134.05 125.605L130.447 130.214V125.82C130.447 125.565 130.335 125.437 130.112 125.437C129.888 125.437 129.776 125.565 129.776 125.82V130.92C129.776 131.176 129.888 131.303 130.112 131.303C130.247 131.303 130.363 131.248 130.459 131.136L134.05 126.563V130.92Z" fill="#002348"/>
<path fill-rule="evenodd" clip-rule="evenodd" d="M53.1762 156.982C40.6715 149.05 34.2213 138.536 32.3276 127.016C30.5223 116.032 32.8814 104.161 38.0927 92.7671C43.2799 81.426 51.2971 70.55 60.84 61.5016C77.3638 45.8339 98.4986 35.614 117.514 37.8745C129.581 39.3091 139.672 45.2922 147.17 53.9749C152.699 60.3769 156.815 68.2428 159.269 76.8275C161.72 85.4014 162.518 94.6995 161.415 103.978C159.553 119.637 152.28 135.242 138.407 147.223C125.254 158.583 110.724 165.704 95.7569 167.426C81.6676 169.046 67.2128 165.887 53.1762 156.982ZM34.233 126.706C36.0393 137.695 42.2194 147.742 54.2121 155.349C67.8537 164.003 81.881 167.076 95.5376 165.505C110.109 163.829 124.285 156.87 137.144 145.764C150.62 134.126 157.686 118.965 159.495 103.751C160.567 94.7298 159.792 85.6906 157.409 77.3567C155.03 69.0335 151.05 61.4197 145.711 55.2374C138.517 46.9079 128.846 41.169 117.287 39.795C98.8748 37.6061 78.3097 47.5973 62.1706 62.9002C52.7975 71.7877 44.9293 82.4564 39.8467 93.5685C34.7882 104.628 32.4927 116.119 34.233 126.706Z" fill="#326592"/>
<path fill-rule="evenodd" clip-rule="evenodd" d="M61.4047 84.9807C62.0207 84.9807 62.6115 85.2254 63.0471 85.661C63.4827 86.0966 63.7274 86.6874 63.7274 87.3034C63.7274 87.7628 63.5912 88.2119 63.336 88.5938C63.0807 88.9758 62.718 89.2735 62.2936 89.4493C61.8692 89.6251 61.4021 89.6711 60.9516 89.5815C60.501 89.4918 60.0872 89.2706 59.7623 88.9458C59.4375 88.621 59.2163 88.2071 59.1267 87.7565C59.037 87.306 59.083 86.839 59.2588 86.4145C59.4346 85.9901 59.7323 85.6274 60.1143 85.3722C60.4963 85.1169 60.9453 84.9807 61.4047 84.9807Z" fill="#E53A10"/>
</svg>
